<svg xmlns="http://www.w3.org/2000/svg" xmlns:xlink="http://www.w3.org/1999/xlink" viewBox="0 0 1200 130" width="1200" height="130" role="img" aria-label="项目"><title>项目</title><style>
@media (prefers-reduced-motion: reduce) { * { animation: none !important; } }
.fb { transform-box: fill-box; transform-origin: center; }

.mv { animation: drift 30s linear infinite; }
@keyframes drift { to { transform: translateX(-600px); } }
.wv rect { animation: wave 1.6s ease-in-out infinite alternate; }
@keyframes wave { from { transform: scaleY(.1); } to { transform: scaleY(1); } }
.sweep { animation: sweep 6s cubic-bezier(.6,0,.2,1) infinite; }
@keyframes sweep { from { transform: translateX(0); } to { transform: translateX(530px); } }
.lit { animation: lit 6s infinite; opacity: .25; }
@keyframes lit { 0% { opacity: .25; } 8%,70% { opacity: 1; } 100% { opacity: .25; } }
</style><rect width="1200" height="130" rx="16" fill="#0b0b0d"/><path d="M56.2 61.7C54.6 62 52.9 62.3 51.3 62.6V44.2H56C56.5 44.2 56.9 44 57 43.5C55.6 42.2 53.1 40.1 53.1 40.1L51 43H41.2L41.5 44.2H46.4V63.4C44.3 63.7 42.4 63.8 41.2 63.9L43.3 69.9C43.8 69.8 44.3 69.4 44.5 68.9C50 66.2 53.7 63.8 56.2 62.1ZM64.3 50.4C64.2 63.9 64.3 70.4 51 75.1L51.4 75.7C60.7 73.8 64.8 70.9 66.8 66.5C69.7 68.7 73 72.2 74.6 75.1C79.8 77.5 81.8 67.7 67.2 65.7C68.5 62.2 68.6 57.9 68.8 52.6C69.8 52.6 70.2 52.2 70.4 51.7ZM72.4 41.2H55.9L56.2 42.4H64C63.9 44.1 63.8 46.2 63.8 47.6H61.4L56.6 45.7V66.4H57.4C59.2 66.4 61.2 65.4 61.2 64.9V48.8H71.7V66H72.5C74 66 76.3 65 76.3 64.8V49.4C77 49.2 77.5 48.9 77.7 48.6L73.4 45.4L71.4 47.6H65C66.4 46.2 68 44.2 69.2 42.4H78.2C78.8 42.4 79.2 42.2 79.3 41.7C77.7 40.2 74.9 38.1 74.9 38.1ZM98 70.6V61.8H114.2V70.6ZM114.2 52V60.6H98V52ZM114.2 42.5V50.9H98V42.5ZM116.2 38.6 113.8 41.4H98.3L93 39.2V75.5H93.9C96 75.5 98 74.3 98 73.6V71.7H114.2V75.1H115C116.8 75.1 119.2 73.9 119.3 73.5V43.4C120.2 43.2 120.8 42.9 121 42.5Z" fill="#ece6dc" /><path d="M43.1 102V93.6H45.8Q46.5 93.6 47.1 93.9Q47.7 94.2 48 94.8Q48.3 95.3 48.3 96.1Q48.3 96.8 48 97.4Q47.7 97.9 47.1 98.2Q46.5 98.5 45.8 98.5H44.1V102ZM44.1 97.6H45.8Q46.4 97.6 46.8 97.2Q47.3 96.8 47.3 96.1Q47.3 95.4 46.8 95Q46.4 94.5 45.8 94.5H44.1ZM52 102V93.6H54.6Q55.3 93.6 55.9 93.9Q56.4 94.2 56.7 94.8Q57.1 95.3 57.1 96Q57.1 96.9 56.6 97.5Q56.2 98.1 55.4 98.3L57.2 102H55.9L54.3 98.4H53V102ZM53 97.5H54.6Q55.2 97.5 55.6 97.1Q56 96.7 56 96Q56 95.3 55.6 94.9Q55.2 94.5 54.6 94.5H53ZM63.2 102.1Q62.5 102.1 61.9 101.8Q61.4 101.5 61.1 101Q60.8 100.4 60.8 99.7V95.9Q60.8 95.1 61.1 94.6Q61.4 94.1 61.9 93.8Q62.5 93.5 63.2 93.5Q64 93.5 64.6 93.8Q65.1 94.1 65.4 94.6Q65.7 95.1 65.7 95.9V99.7Q65.7 100.4 65.4 101Q65.1 101.5 64.6 101.8Q64 102.1 63.2 102.1ZM63.2 101.2Q63.9 101.2 64.3 100.8Q64.7 100.4 64.7 99.7V95.9Q64.7 95.2 64.3 94.8Q63.9 94.4 63.2 94.4Q62.6 94.4 62.2 94.8Q61.8 95.2 61.8 95.9V99.7Q61.8 100.4 62.2 100.8Q62.6 101.2 63.2 101.2ZM71.8 102.1Q70.6 102.1 69.9 101.4Q69.2 100.8 69.2 99.6H70.3Q70.3 100.4 70.7 100.8Q71.1 101.2 71.8 101.2Q72.5 101.2 72.9 100.8Q73.4 100.4 73.4 99.6V94.5H71.3V93.6H74.4V99.6Q74.4 100.8 73.7 101.4Q73 102.1 71.8 102.1ZM78.8 102V93.6H83.6V94.5H79.8V97.1H83.2V98.1H79.8V101.1H83.6V102ZM90 102.1Q89.2 102.1 88.7 101.8Q88.1 101.5 87.8 101Q87.5 100.4 87.5 99.7V95.9Q87.5 95.1 87.8 94.6Q88.1 94.1 88.7 93.8Q89.2 93.5 90 93.5Q90.8 93.5 91.3 93.8Q91.9 94.1 92.2 94.6Q92.5 95.2 92.5 95.9H91.4Q91.4 95.2 91 94.8Q90.7 94.4 90 94.4Q89.3 94.4 88.9 94.8Q88.5 95.2 88.5 95.9V99.7Q88.5 100.4 88.9 100.8Q89.3 101.2 90 101.2Q90.7 101.2 91 100.8Q91.4 100.4 91.4 99.7H92.5Q92.5 100.4 92.2 101Q91.9 101.5 91.3 101.8Q90.8 102.1 90 102.1ZM98.3 102V94.5H96V93.6H101.7V94.5H99.4V102ZM107.8 102.1Q107 102.1 106.4 101.8Q105.8 101.6 105.5 101Q105.1 100.5 105.1 99.8H106.2Q106.2 100.4 106.6 100.8Q107 101.2 107.8 101.2Q108.5 101.2 108.9 100.8Q109.3 100.5 109.3 99.8Q109.3 99.3 109.1 99Q108.8 98.6 108.3 98.4L107.2 98.1Q106.3 97.8 105.8 97.2Q105.4 96.6 105.4 95.7Q105.4 95 105.7 94.5Q106 94 106.5 93.8Q107.1 93.5 107.8 93.5Q108.9 93.5 109.6 94.1Q110.3 94.7 110.3 95.7H109.2Q109.2 95.1 108.9 94.8Q108.5 94.4 107.8 94.4Q107.1 94.4 106.8 94.7Q106.4 95.1 106.4 95.6Q106.4 96.1 106.7 96.5Q106.9 96.9 107.5 97.1L108.6 97.4Q109.5 97.7 109.9 98.3Q110.4 99 110.4 99.8Q110.4 100.5 110.1 101Q109.7 101.5 109.1 101.8Q108.6 102.1 107.8 102.1ZM131.9 103.3 135.9 92.5H137L133 103.3ZM162.4 102V100.2H158.6V98.5L161.9 93.6H163.1L159.7 98.8V99.2H162.4V97.2H163.5V102ZM176.1 102 178.3 93.6H179.7L181.8 102H180.8L180.2 99.8H177.7L177.1 102ZM177.9 98.9H180L179.4 96.3Q179.2 95.6 179.1 95.1Q179 94.6 179 94.4Q178.9 94.6 178.8 95.1Q178.7 95.6 178.5 96.3ZM185.6 102V101.1H187.3V94.5H185.6V93.6H190.1V94.5H188.4V101.1H190.1V102ZM203.3 102V93.6H206Q206.7 93.6 207.3 93.9Q207.9 94.2 208.2 94.8Q208.5 95.3 208.5 96.1Q208.5 96.8 208.2 97.4Q207.9 97.9 207.3 98.2Q206.7 98.5 206 98.5H204.3V102ZM204.3 97.6H206Q206.6 97.6 207 97.2Q207.5 96.8 207.5 96.1Q207.5 95.4 207 95Q206.6 94.5 206 94.5H204.3ZM212.2 102V93.6H214.8Q215.5 93.6 216.1 93.9Q216.6 94.2 216.9 94.8Q217.3 95.3 217.3 96Q217.3 96.9 216.8 97.5Q216.4 98.1 215.6 98.3L217.4 102H216.1L214.5 98.4H213.2V102ZM213.2 97.5H214.8Q215.4 97.5 215.8 97.1Q216.2 96.7 216.2 96Q216.2 95.3 215.8 94.9Q215.4 94.5 214.8 94.5H213.2ZM223.5 102.1Q222.7 102.1 222.1 101.8Q221.6 101.5 221.3 101Q221 100.4 221 99.7V95.9Q221 95.1 221.3 94.6Q221.6 94.1 222.1 93.8Q222.7 93.5 223.5 93.5Q224.2 93.5 224.8 93.8Q225.3 94.1 225.6 94.6Q225.9 95.1 225.9 95.9V99.7Q225.9 100.4 225.6 101Q225.3 101.5 224.8 101.8Q224.2 102.1 223.5 102.1ZM223.5 101.2Q224.1 101.2 224.5 100.8Q224.9 100.4 224.9 99.7V95.9Q224.9 95.2 224.5 94.8Q224.1 94.4 223.5 94.4Q222.8 94.4 222.4 94.8Q222 95.2 222 95.9V99.7Q222 100.4 222.4 100.8Q222.8 101.2 223.5 101.2ZM230 102V93.6H232.1Q232.9 93.6 233.5 93.9Q234.1 94.2 234.5 94.8Q234.8 95.4 234.8 96.1V99.5Q234.8 100.2 234.5 100.8Q234.1 101.4 233.5 101.7Q232.9 102 232.1 102ZM231 101.1H232.1Q232.9 101.1 233.3 100.7Q233.8 100.2 233.8 99.5V96.1Q233.8 95.4 233.3 95Q232.9 94.5 232.1 94.5H231ZM241.3 102.1Q240.1 102.1 239.5 101.5Q238.8 100.8 238.8 99.7V93.6H239.9V99.7Q239.9 100.4 240.2 100.8Q240.5 101.2 241.3 101.2Q241.9 101.2 242.3 100.8Q242.6 100.4 242.6 99.7V93.6H243.7V99.7Q243.7 100.8 243 101.5Q242.4 102.1 241.3 102.1ZM250.2 102.1Q249.4 102.1 248.9 101.8Q248.3 101.5 248 101Q247.7 100.4 247.7 99.7V95.9Q247.7 95.1 248 94.6Q248.3 94.1 248.9 93.8Q249.4 93.5 250.2 93.5Q251 93.5 251.5 93.8Q252.1 94.1 252.4 94.6Q252.7 95.2 252.7 95.9H251.6Q251.6 95.2 251.2 94.8Q250.9 94.4 250.2 94.4Q249.5 94.4 249.1 94.8Q248.7 95.2 248.7 95.9V99.7Q248.7 100.4 249.1 100.8Q249.5 101.2 250.2 101.2Q250.9 101.2 251.2 100.8Q251.6 100.4 251.6 99.7H252.7Q252.7 100.4 252.4 101Q252.1 101.5 251.5 101.8Q251 102.1 250.2 102.1ZM258.5 102V94.5H256.2V93.6H261.9V94.5H259.6V102ZM274.5 102V93.6H277.2Q277.9 93.6 278.5 93.9Q279.1 94.2 279.4 94.8Q279.7 95.3 279.7 96.1Q279.7 96.8 279.4 97.4Q279.1 97.9 278.5 98.2Q277.9 98.5 277.2 98.5H275.5V102ZM275.5 97.6H277.2Q277.8 97.6 278.2 97.2Q278.7 96.8 278.7 96.1Q278.7 95.4 278.2 95Q277.8 94.5 277.2 94.5H275.5ZM283.4 102V93.6H286Q286.7 93.6 287.3 93.9Q287.8 94.2 288.1 94.8Q288.5 95.3 288.5 96Q288.5 96.9 288 97.5Q287.6 98.1 286.8 98.3L288.6 102H287.3L285.7 98.4H284.4V102ZM284.4 97.5H286Q286.6 97.5 287 97.1Q287.4 96.7 287.4 96Q287.4 95.3 287 94.9Q286.6 94.5 286 94.5H284.4ZM294.7 102.1Q293.9 102.1 293.3 101.8Q292.8 101.5 292.5 101Q292.2 100.4 292.2 99.7V95.9Q292.2 95.1 292.5 94.6Q292.8 94.1 293.3 93.8Q293.9 93.5 294.7 93.5Q295.4 93.5 296 93.8Q296.5 94.1 296.8 94.6Q297.1 95.1 297.1 95.9V99.7Q297.1 100.4 296.8 101Q296.5 101.5 296 101.8Q295.4 102.1 294.7 102.1ZM294.7 101.2Q295.3 101.2 295.7 100.8Q296.1 100.4 296.1 99.7V95.9Q296.1 95.2 295.7 94.8Q295.3 94.4 294.7 94.4Q294 94.4 293.6 94.8Q293.2 95.2 293.2 95.9V99.7Q293.2 100.4 293.6 100.8Q294 101.2 294.7 101.2ZM303 102V94.5H300.7V93.6H306.4V94.5H304.1V102ZM312.4 102.1Q311.7 102.1 311.1 101.8Q310.6 101.5 310.3 101Q310 100.4 310 99.7V95.9Q310 95.1 310.3 94.6Q310.6 94.1 311.1 93.8Q311.7 93.5 312.4 93.5Q313.2 93.5 313.8 93.8Q314.3 94.1 314.6 94.6Q314.9 95.1 314.9 95.9V99.7Q314.9 100.4 314.6 101Q314.3 101.5 313.8 101.8Q313.2 102.1 312.4 102.1ZM312.4 101.2Q313.1 101.2 313.5 100.8Q313.9 100.4 313.9 99.7V95.9Q313.9 95.2 313.5 94.8Q313.1 94.4 312.4 94.4Q311.8 94.4 311.4 94.8Q311 95.2 311 95.9V99.7Q311 100.4 311.4 100.8Q311.8 101.2 312.4 101.2ZM320.8 102V94.5H318.5V93.6H324.2V94.5H321.9V102ZM329.7 102V98.9L327.2 93.6H328.3L329.9 97.1Q330.1 97.3 330.2 97.5Q330.2 97.7 330.3 97.8Q330.3 97.7 330.4 97.5Q330.5 97.3 330.6 97.1L332.2 93.6H333.3L330.8 98.9V102ZM336.8 102V93.6H339.5Q340.2 93.6 340.8 93.9Q341.4 94.2 341.7 94.8Q342 95.3 342 96.1Q342 96.8 341.7 97.4Q341.4 97.9 340.8 98.2Q340.2 98.5 339.5 98.5H337.8V102ZM337.8 97.6H339.5Q340.1 97.6 340.5 97.2Q341 96.8 341 96.1Q341 95.4 340.5 95Q340.1 94.5 339.5 94.5H337.8ZM345.7 102V93.6H350.6V94.5H346.8V97.1H350.2V98.1H346.8V101.1H350.6V102ZM357 102.1Q356.2 102.1 355.6 101.8Q355 101.6 354.7 101Q354.3 100.5 354.3 99.8H355.4Q355.4 100.4 355.8 100.8Q356.2 101.2 357 101.2Q357.7 101.2 358.1 100.8Q358.5 100.5 358.5 99.8Q358.5 99.3 358.3 99Q358 98.6 357.5 98.4L356.4 98.1Q355.5 97.8 355 97.2Q354.6 96.6 354.6 95.7Q354.6 95 354.9 94.5Q355.2 94 355.7 93.8Q356.3 93.5 357 93.5Q358.1 93.5 358.8 94.1Q359.5 94.7 359.5 95.7H358.4Q358.4 95.1 358.1 94.8Q357.7 94.4 357 94.4Q356.3 94.4 356 94.7Q355.6 95.1 355.6 95.6Q355.6 96.1 355.9 96.5Q356.1 96.9 356.7 97.1L357.8 97.4Q358.7 97.7 359.1 98.3Q359.6 99 359.6 99.8Q359.6 100.5 359.2 101Q358.9 101.5 358.3 101.8Q357.8 102.1 357 102.1Z" fill="#7ee0d2" /><clipPath id="m"><rect x="640" y="30" width="530" height="70" rx="6"/></clipPath><rect class="lit" x="643.0" y="40" width="31.9" height="50" rx="3" fill="#cdbc9a" style="animation-delay:0.00s"/><rect class="lit" x="680.9" y="40" width="31.9" height="50" rx="3" fill="#161b20" style="animation-delay:0.24s"/><rect class="lit" x="718.7" y="40" width="31.9" height="50" rx="3" fill="#a28a67" style="animation-delay:0.47s"/><rect class="lit" x="756.6" y="40" width="31.9" height="50" rx="3" fill="#222222" style="animation-delay:0.71s"/><rect class="lit" x="794.4" y="40" width="31.9" height="50" rx="3" fill="#aea084" style="animation-delay:0.94s"/><rect class="lit" x="832.3" y="40" width="31.9" height="50" rx="3" fill="#e4e4dd" style="animation-delay:1.18s"/><rect class="lit" x="870.1" y="40" width="31.9" height="50" rx="3" fill="#4d413a" style="animation-delay:1.41s"/><rect class="lit" x="908.0" y="40" width="31.9" height="50" rx="3" fill="#d2c09e" style="animation-delay:1.65s"/><rect class="lit" x="945.9" y="40" width="31.9" height="50" rx="3" fill="#525252" style="animation-delay:1.89s"/><rect class="lit" x="983.7" y="40" width="31.9" height="50" rx="3" fill="#a48561" style="animation-delay:2.12s"/><rect class="lit" x="1021.6" y="40" width="31.9" height="50" rx="3" fill="#d4cec1" style="animation-delay:2.36s"/><rect class="lit" x="1059.4" y="40" width="31.9" height="50" rx="3" fill="#1b1a20" style="animation-delay:2.59s"/><rect class="lit" x="1097.3" y="40" width="31.9" height="50" rx="3" fill="#d0be9b" style="animation-delay:2.83s"/><rect class="lit" x="1135.1" y="40" width="31.9" height="50" rx="3" fill="#434343" style="animation-delay:3.06s"/><g class="sweep"><rect x="640" y="30" width="2" height="70" fill="#7ee0d2"/></g></svg>